<svg id="Layer_1" data-name="Layer 1" xmlns="http://www.w3.org/2000/svg" viewBox="0 0 50 50"><title>Artboard 1</title><path d="M8.78,13a2.92,2.92,0,0,1,1.49-2.64c2.5-1.64,5.07-3.18,7.63-4.74,1.49-.91,3-1.78,4.5-2.67a3.87,3.87,0,0,1,4.25,0A30.23,30.23,0,0,1,33,8.56c2.12,2.27,4.16,4.62,6.15,7,1,1.23,1.9,2.59,2.84,3.89.07.09.16.19.17.29.09,1.53,1.23,2.54,1.85,3.8a3,3,0,0,1-.54,3.4,48.91,48.91,0,0,1-7.93,6.72c-2.27,1.52-4.39,3.26-6.64,4.81A37.13,37.13,0,0,1,25,40.69a9.86,9.86,0,0,0-3,2,2.09,2.09,0,0,1-2.86-.09,12,12,0,0,1-1.66-2,22.48,22.48,0,0,1-2.13-3.36c-1.31-2.88-2.45-5.83-3.71-8.73a32,32,0,0,0-1.86-3.8,34.88,34.88,0,0,1-3.7-8.53C5.55,14.06,6.46,12.9,8.78,13ZM20.43,38.37a3.65,3.65,0,0,1-.65-.85c-1-2.31-1.93-4.65-2.89-7-.3-.73-.59-1.47-.89-2.2-.9-2.23-1.71-4.5-2.74-6.66s-2.33-4.32-3.48-6.49a2.3,2.3,0,0,1-.08-.84c.24.14.55.23.7.44a32.64,32.64,0,0,1,3.78,7.28c1.95,4.91,4,9.77,6,14.66.22.54.55.68,1,.38,1.73-1.05,3.52-2,5.17-3.19,2.72-1.92,5.34-4,8-6,1.52-1.14,3.05-2.25,4.56-3.4a3.76,3.76,0,0,0,1.13-1.13,6.85,6.85,0,0,0,.77-2.36c0-.35-.57-.77-.89-1.16-.14-.18-.3-.34-.44-.52-.82-1-1.6-2.12-2.46-3.12-1.8-2.1-3.6-4.21-5.48-6.24C30,8.25,28.29,6.57,26.55,4.92c-1.25-1.19-2.27-1.25-3.78-.38-1,.59-2,1.25-3,1.83-1.65.94-3.36,1.77-5,2.77-1.43.89-2.76,1.93-4.12,2.94a1.24,1.24,0,0,0-.45.76c-.17,1.42-.15,1.4-1.59,1.4a2.14,2.14,0,0,0-1.18.3,1.12,1.12,0,0,0-.37,1,29.26,29.26,0,0,0,3.29,7.78c2.19,3.4,3.41,7.2,4.86,10.91,1.08,2.76,2.9,5,4.57,7.4a1.79,1.79,0,0,0,2.46.13c1.06-.8,2.16-1.55,3.28-2.27.93-.59,2-1,2.85-1.67,2.62-1.87,5.14-3.87,7.8-5.68a36.83,36.83,0,0,0,6.25-5.68,4.72,4.72,0,0,0,.46-.71l-.17-.14-4.44,3.34-7.6,5.67c-2.55,1.91-5.08,3.87-7.67,5.72a2.26,2.26,0,0,1-2.35.43c-.74-.29-1-.69-.91-1.26C19.76,39.09,20.17,38.75,20.43,38.37Zm1.94,1A13.26,13.26,0,0,0,23.89,39a5.06,5.06,0,0,0,1.16-.68c2-1.49,3.86-3,5.84-4.49s4.25-3,6.35-4.5c1.07-.77,2.12-1.58,3.12-2.45A15.19,15.19,0,0,0,42.06,25a.75.75,0,0,0,0-1.1c-.76.65-1.47,1.3-2.22,1.89-1.28,1-2.57,2-3.89,3C33.07,30.88,30.18,33,27.19,35a53,53,0,0,1-5.42,3c-.61.31-.6.65-.43,1.15a5.37,5.37,0,0,0,.34.62l-1.15-.47c.06.27.09.46.14.64s.12.35.17.52C22,40.28,22.4,39.9,22.36,39.38Z"/></svg>