<svg id="Layer_1" data-name="Layer 1" xmlns="http://www.w3.org/2000/svg" viewBox="0 0 44.99 42.98"><title>Bard</title><g id="FTn8zp.tif"><path d="M47.61,7.11A1.73,1.73,0,0,1,46.36,9a1.62,1.62,0,0,1-2.11-.52c-.12-.16-.58-.2-.83-.12S43,8.79,42.8,9l.19.22,1.12-.34.08.16a22.79,22.79,0,0,0-2.12,1.49Q35.41,16.38,28.8,22.29A9.93,9.93,0,0,0,27.37,24c-.1.15,0,.51.11.71a3.68,3.68,0,0,1,.09,2.87,5.91,5.91,0,0,0-.26,1.91,15.32,15.32,0,0,1-2.9,9.89,13.76,13.76,0,0,1-18,3.74l-.51-.3c-1.68-1-2.05-1.83-1.6-3.74A16.76,16.76,0,0,1,7.59,33a30.72,30.72,0,0,1,12.18-9.88c.76-.34,1.56-.57,2.33-.88a3.61,3.61,0,0,0,1-.57c2.48-2.16,5-4.32,7.42-6.51,2.84-2.53,5.66-5.1,8.48-7.65.14-.12.25-.27.4-.44a10,10,0,0,1-2.08.23c-.34,0-.92-.52-.9-.78,0-.56.31-1.25,1.09-1.1.94.19,1.85.52,2.87.82l.49-1a3.83,3.83,0,0,1-1-.53c-.22-.22-.47-.67-.38-.88a1.12,1.12,0,0,1,.84-.61,5,5,0,0,1,1.78.43c.77.34,1.3.54,1.62-.55a1.66,1.66,0,0,1,1.13-.93,8.13,8.13,0,0,1,2.52.06,1.3,1.3,0,0,1,1.14,1.3,2.67,2.67,0,0,0,.15.77C49.38,6.06,49.3,6.29,47.61,7.11ZM7.46,43c3.77,2.47,10.65,2.29,15.13-2.18S28,30.17,25.68,25.77C22.13,34.18,15.76,39.66,7.46,43ZM25.1,25.53c-.56.06-1.09.28-1.41.1a1,1,0,0,0-1.29.22c-.58.53-1.18,1.05-1.8,1.54A8.16,8.16,0,0,0,18.44,30a12.91,12.91,0,0,1-8.34,6.86L10.83,38,8.68,39.74c-.47-.85-.93-1.59-1.3-2.38a1.56,1.56,0,0,1,.77-2.16,5.79,5.79,0,0,0,1.8-1.65c1.89-3,4.16-5.57,7.69-6.71a2,2,0,0,0,.65-.42c.92-.8,1.83-1.6,2.73-2.42a7.38,7.38,0,0,0,.65-.76,3.57,3.57,0,0,0-1.69.31A30.1,30.1,0,0,0,5.5,37.21,8.32,8.32,0,0,0,4.71,40a1.74,1.74,0,0,0,1.88,2.2,7.17,7.17,0,0,0,2.13-.29A17,17,0,0,0,14,39.14,30.75,30.75,0,0,0,24.19,27.9,23.9,23.9,0,0,0,25.1,25.53Zm-.81-3.37.17.23a10.13,10.13,0,0,0,.89-.63q5.48-4.8,11-9.61,3.8-3.35,7.58-6.73a3.07,3.07,0,0,1,1.84-.75A4.37,4.37,0,0,0,47.58,3.6c.13-.1.09-.68-.07-.86-.67-.75-3.1-.35-3.38.59a6.94,6.94,0,0,1-2.21,3c-3.23,3-6.51,5.91-9.79,8.84-2.38,2.12-4.79,4.22-7.18,6.33C24.72,21.73,24.51,21.95,24.29,22.16ZM27,26.75l.26,0A6.22,6.22,0,0,0,27,25.11c-.84-1.81-.51-1.54.65-2.61,4.09-3.75,8.28-7.4,12.43-11.09.61-.55,1.26-1.06,1.84-1.64A2.82,2.82,0,0,0,42.32,9l-.22-.14c-.25.2-.52.38-.75.59C39.26,11.3,37.2,13.18,35.1,15c-2.47,2.17-5,4.3-7.46,6.46a26.39,26.39,0,0,0-1.89,1.85.76.76,0,0,0-.14.67C26.05,24.93,26.54,25.83,27,26.75ZM11.24,35.68l.19.21A12.58,12.58,0,0,0,17.58,30Zm31-28a4.18,4.18,0,0,1,1.55-.51c.66.06.9-.14,1.06-.7.12-.39.3-.76.46-1.15l-.18-.2C43.92,5.75,43.26,7,42.21,7.72ZM15.82,28.54a8,8,0,0,0-4,3.77ZM47.13,7.65l-.06-.38a16.46,16.46,0,0,0-1.73.1c-.18,0-.32.32-.48.49.18.17.34.44.54.48A1.57,1.57,0,0,0,47.13,7.65ZM19,27l.23.24,2.88-2.48-.25-.27ZM8.55,38.77l.3.24c1.33-.83,1.38-.9,1.05-1.57ZM48.47,5.37l-.11-.57-1.81.41.08.44ZM41.76,4.23l0-.47L40,3.63l0,.45Z" transform="translate(-4.12 -2.07)"/></g></svg>