<svg id="Layer_1" data-name="Layer 1" xmlns="http://www.w3.org/2000/svg" viewBox="0 0 44.13 43.5"><title>Cleric</title><path d="M46.1,25.35,41,27.74c-1.17.55-2.33,1.14-3.53,1.62a1.08,1.08,0,0,0-.75,1.53c.77,2.87,1.49,5.76,2.22,8.64.09.34.16.68.27,1.17-2.56-1.19-5-2.27-7.34-3.42a1.26,1.26,0,0,0-1.51.07.94.94,0,0,1-.36.19c-1.62.37-2.35,1.59-3,3-1,2.07-2.06,4.07-3.16,6.23-.17-.35-.29-.58-.39-.81-1-2.3-2-4.6-3-6.88a2.71,2.71,0,0,0-.93-.92c-1.51-1.08-3.09-.86-4.77-.39-2,.56-4.07.95-6.12,1.4l-.94.18,2.62-5.27,1.15-2.29c.65-1.31.4-2-.93-2.69L2.88,25.3,2,24.82c.32-.16.55-.29.79-.39l7.9-3.57a1.84,1.84,0,0,0,1.13-2.25q-1.08-4.84-2.17-9.67c0-.13,0-.26-.1-.51.31.12.53.19.73.29l7.09,3.56a2.6,2.6,0,0,0,3-1l3.53-7.1.47-.91,2.37,5.23,1,2.11c.8,1.79,1.66,2.16,3.56,1.57l8.29-2.54a1.25,1.25,0,0,1,.25,0c-.08.24-.13.47-.21.68l-3.21,7.88a2.28,2.28,0,0,0,1,2.71L45,24.76Zm-22,12.42a25.16,25.16,0,0,0,2.85-.39,12.74,12.74,0,0,0,8.54-16.8,12,12,0,0,0-15.54-7.38,12.66,12.66,0,0,0-7.81,14.07C13.29,33.5,18.1,37.68,24.07,37.77Zm-.12,6.41,2.27-4.6h-4.3ZM33.4,12.71l2.71,3.1,1.83-4.57Zm-17.9-.1-4.42-2.18,1.19,5ZM36.25,33.68,33.11,36.6l4.48,2.07Zm-21.51,2.9L11.9,33.36,9.72,37.79Zm7.31-26.13h4.32L24.26,5.85ZM9.15,22.8,4.52,24.9l4.62,2.22Zm29.93,4.58,4.5-2.12L39.07,23Z" transform="translate(-1.97 -3.25)"/><path d="M35.33,25A11.08,11.08,0,1,1,24.17,14,11.08,11.08,0,0,1,35.33,25ZM24.21,34a8.94,8.94,0,1,0-8.9-8.9A9,9,0,0,0,24.21,34Z" transform="translate(-1.97 -3.25)"/><path d="M22.59,15.46c-8.48-1-10.44,8.35-7.49,14.59,1.42,3,4.25,4,7.39,4.32,3.95.46,7.13-1.36,9.61-4.42,4.48-5.5.87-13.68-5.55-15.65-8.48-2.59-10.8,8.21-11.34,14.21-.17,1.94,2.77,1.88,3,0a29.9,29.9,0,0,1,1.64-6.68L16.95,21a38.34,38.34,0,0,0-.49,9.5c.17,1.59,2.48,2.15,2.95.4a75.42,75.42,0,0,0,1.69-8.05l-2.95-.4-.52,8.18c-.11,1.66,2.68,2.08,2.95.4.43-2.68.86-5.37,1.34-8L19,22.61a52,52,0,0,0,.18,7.65,1.52,1.52,0,0,0,2.26,1.3c1.9-.95,2-4.39,2.46-6.2L20.91,25a25.93,25.93,0,0,0,0,5.78c.11,1,1.24,2,2.26,1.3,1.8-1.31,1.79-4,2.22-6.07l-2.95-.4c0,2.21,0,4.41.12,6.61a1.52,1.52,0,0,0,2.26,1.3c1.89-1,2.09-4,2.47-5.91l-2.89-.8a14.56,14.56,0,0,0-.26,4,1.51,1.51,0,0,0,2.8.76,17.84,17.84,0,0,0,1.66-4.55l-2.95-.4.07,1.65a1.51,1.51,0,0,0,2.8.76,9.69,9.69,0,0,0,1.32-3.15l-2.95-.4a4.7,4.7,0,0,0,.22,2.7,1.52,1.52,0,0,0,2.51.66,4.63,4.63,0,0,0,1.79-3.15,1.51,1.51,0,0,0-2.74-1.16,5.46,5.46,0,0,0-1.07,4.23,1.52,1.52,0,0,0,2.8.76,6.5,6.5,0,0,0,1.38-4,1.51,1.51,0,0,0-2.56-1.06,5.94,5.94,0,0,0-1.53,4.36,1.51,1.51,0,0,0,2.95.4c.6-1.83,1.22-5.9-1.21-6.81-1.73-.65-3.81,1.49-3.9,3.12a2.35,2.35,0,0,0,3.08,2.44c2.27-.91,2-5,1.34-6.79a1.52,1.52,0,0,0-1.85-1,4,4,0,0,0-2.67,5.07,1.52,1.52,0,0,0,2.74.36c1.26-1.93,1.82-4.55-.1-6.31-1.43-1.31-4-1.23-4.84.66-1.88,4.06,6.12,4.78,4.47-.55-.62-2-2.58-3.6-4.71-3.09a2.87,2.87,0,0,0-2,4c1.86,3.67,7.23-.81,2.86-4A1.51,1.51,0,0,0,22,16.4c-1.85,1.86-1.51,3.92.58,5.37a1.52,1.52,0,0,0,2.2-.9c.77-2.29-.23-4-2.54-4.63a1.53,1.53,0,0,0-1.85,1,7.9,7.9,0,0,0,0,4.86c.38,1.3,2.68,1.55,2.89,0a3.68,3.68,0,0,0-2-4.22,1.52,1.52,0,0,0-2.05.54,4.09,4.09,0,0,0,.85,5.3,1.52,1.52,0,0,0,2.51-.66,3.67,3.67,0,0,0,.25-2.44l-2.95.4a7.71,7.71,0,0,0,3.77,5.52,1.51,1.51,0,0,0,2.2-.9,3.33,3.33,0,0,0-.4-2.8c-.73-1.38-2.73-.65-2.8.76a6.42,6.42,0,0,0,1.62,4.74c.85,1.08,2.54.13,2.56-1.06a9,9,0,0,0-1.05-5A1.51,1.51,0,0,0,23,23a8.62,8.62,0,0,0,1.52,5.78,1.53,1.53,0,0,0,2.05.54l.42-.23a1.49,1.49,0,0,0,.74-1.3A16.67,16.67,0,0,0,27.36,25l-2.89.8a21.15,21.15,0,0,0,1.43,4.18c.58,1.29,2.35.72,2.74-.36a3.89,3.89,0,0,0,0-3c-.55-1.46-3.11-1.41-2.95.4a4.89,4.89,0,0,0,1,2.79c.8,1.05,2.91.9,2.8-.76a4.94,4.94,0,0,0-.75-2.62,1.52,1.52,0,0,0-2.74.36,4.15,4.15,0,0,0,1,4,1.5,1.5,0,0,0,1.82.23c2-1.36,1.36-4.83,1.21-6.91l-2.95.4a7.28,7.28,0,0,0,1.22,2.25c1,1.28,3.23.6,2.74-1.16l-1.58-5.7-2.51,1.46,1,1c1.1,1.2,2.75-.1,2.51-1.46a12.37,12.37,0,0,0-1.46-4c-.81-1.45-3.32-.48-2.74,1.16a9.48,9.48,0,0,0,1.45,2.77c1.13,1.49,3.57.21,2.59-1.51l-.32-.56a1.5,1.5,0,0,0-2.59,1.51c1,1.8.39,4.31.77,6.3.35,1.78,2.79,1.16,2.95-.4a5.36,5.36,0,0,0,0-1.82l-2.95.4.2,1.06a1.52,1.52,0,0,0,2.74.36L31.74,25H29.15l.4.82a1.51,1.51,0,0,0,2.95-.4l.13-1.21-2.95.4.19.82c.37,1.61,3.17,1.3,2.95-.4l-.14-1a1.52,1.52,0,0,0-2.56-1.06l-.75.67c-1.44,1.29.68,3.4,2.12,2.12l.75-.67L29.68,24l.14,1,2.95-.4-.19-.82c-.41-1.77-2.77-1.17-2.95.4l-.13,1.21,2.95-.4a11.72,11.72,0,0,0-.7-1.53,1.51,1.51,0,0,0-2.59,0l-.67,1.16,2.74.36L31,23.93c-.32-1.65-3.07-1.29-2.95.4a5.36,5.36,0,0,1,0,1.82l2.95-.4c-.49-2.49.2-4.71-1.08-7l-2.59,1.51.32.56,2.59-1.51a5.2,5.2,0,0,1-1.15-2l-2.74,1.16a9.3,9.3,0,0,1,1.15,3.31L30,20.26l-1-1a1.51,1.51,0,0,0-2.51,1.46l1.58,5.7,2.74-1.16-.91-1.53c-.58-1.42-3.08-1.44-2.95.4,0,.41.39,4.24.28,4.32l1.82.23-.22-1.06-2.74.36L26.47,29l2.8-.76L28.69,27l-2.95.4v1.39l2.74-.36A17,17,0,0,1,27.36,25c-.43-1.9-3.24-1.08-2.89.8l.22,2,.74-1.3-.42.23,2.05.54A6.64,6.64,0,0,1,26,23l-2.8.76a6.13,6.13,0,0,1,.65,3.54l2.56-1.06-.75-2.61-2.8.76.1.49,2.2-.9a5.09,5.09,0,0,1-2.39-3.73c-.27-1.65-3.16-1.28-2.95.4l-.14,1.64,2.51-.66L21.79,20l-2.05.54.6.83h2.89a4,4,0,0,1,0-3.26l-1.85,1,.45.94,2.2-.9,0-.66-1.82.23,2.35,1.63,1.46.39L25.58,24l2.74.36L28.89,23l-1.85-1q-.69,2.81,2,3.38l-1.3-.74a4.22,4.22,0,0,1,0,3.81l2.95.4.65-2.24-2.56-1.06a3.34,3.34,0,0,1-1,2.45l2.8.76A2.72,2.72,0,0,1,31.25,26L28.5,24.81l-1,1.83L30,27.3l-.11-1.9c.2-1.68-2.57-2-2.95-.4a5,5,0,0,1-1,2.44l2.8.76-.07-1.65c-.07-1.63-2.54-2.11-2.95-.4A14.35,14.35,0,0,1,24.34,30l2.8.76a8.26,8.26,0,0,1,.15-3.16c.36-1.88-2.52-2.7-2.89-.8-.14.71-.41,3.75-1.09,4.12l2.26,1.3c-.1-2.21-.15-4.41-.12-6.61,0-1.66-2.58-2.08-2.95-.4-.16.73-.52,4-.85,4.28l2.26,1.3a25.93,25.93,0,0,1,0-5.78c.19-1.7-2.54-2-2.95-.4-.15.58-.63,4.18-1.08,4.4l2.26,1.3A52,52,0,0,1,22,22.61c.08-1.66-2.64-2.08-2.95-.4-.48,2.68-.92,5.36-1.34,8l2.95.4.52-8.18c.11-1.66-2.69-2.08-2.95-.4a75.42,75.42,0,0,1-1.69,8.05l2.95.4a34.94,34.94,0,0,1,.38-8.7,1.5,1.5,0,0,0-2.89-.8,33.2,33.2,0,0,0-1.75,7.48h3c.31-3.49.71-9.5,4.5-11.25,5.44-2.52,9.93,5.8,7.52,10-2.24,3.89-8.64,6.21-11.79,2.15s-2.27-11.67,4.14-10.93c1.91.22,1.9-2.78,0-3Z" transform="translate(-1.97 -3.25)"/></svg>