<svg id="Layer_1" data-name="Layer 1" xmlns="http://www.w3.org/2000/svg" viewBox="0 0 33.28 36.16"><title>Druid</title><path d="M41.07,5.92c-2.85,2-6,2.8-9.22,3.62-3.6.92-7.27,1.68-10.6,3.39a30.8,30.8,0,0,0-5.33,3.33c-3.55,2.87-5.07,6.75-5.14,11.3a23.05,23.05,0,0,0,.89,6.37c.19.72.33,1.45.49,2.18l-.21.08c-.28-.69-.57-1.38-.83-2.08a19.59,19.59,0,0,1-1.53-9.4,14.8,14.8,0,0,1,6.16-10.58A35.6,35.6,0,0,1,27.86,8.74C30.7,8,33.59,7.39,36.37,6.49A13,13,0,0,0,42,3.35a1.73,1.73,0,0,1,.39-.28A1.14,1.14,0,0,1,42.74,3a6.55,6.55,0,0,1,0,.79,61,61,0,0,1-2.81,11.41,17.33,17.33,0,0,1-9,10.71,49.89,49.89,0,0,1-7.15,3,16.92,16.92,0,0,0-7.27,4.38A9.42,9.42,0,0,0,13.9,38.6c0,.21-.27.39-.42.58-.12-.21-.35-.41-.35-.62a4.64,4.64,0,0,1,.14-1.35c1.13-4.18,4-6.88,7.71-8.74a20.23,20.23,0,0,1,3.54-1.36,30.77,30.77,0,0,0,8-3.91,13.57,13.57,0,0,0,5.38-7.11C39.15,12.76,40,9.31,41.07,5.92Z" transform="translate(-9.47 -3.01)"/><path d="M13,33c.22-1.17.36-2.37.69-3.51a23.84,23.84,0,0,1,4-7.37c1.48-2,3.85-3,6-4.19s4.63-2.16,6.94-3.26c1.19-.57,2.33-1.24,3.5-1.85.47-.24,1-.43,1.58-.69A11.13,11.13,0,0,1,31.31,16c-2.38,1.08-4.79,2.09-7.14,3.23s-4.91,2.34-6.49,4.66c-1.85,2.73-3.9,5.38-4.36,8.81a1.61,1.61,0,0,1-.12.34Z" transform="translate(-9.47 -3.01)"/></svg>