<svg id="Layer_1" data-name="Layer 1" xmlns="http://www.w3.org/2000/svg" viewBox="0 0 45.19 40.34"><title>Paladin</title><path d="M25.88,14.4h3.94c.66,0,1.29,0,1.35.9.05.67-.49,1.19-1.31,1.26l-.9.07c0,.39,0,.73,0,1.08,0,6.37,0,12.75,0,19.12A6,6,0,0,1,27.56,41c-.56.67-1,1.41-1.56,2.13s-1.48,1-2,.24c-1-1.39-2-2.83-3-4.27a1.75,1.75,0,0,1-.23-.92q0-10.36,0-20.71c0-.17,0-.35,0-.62-.66,0-1.31,0-1.94,0s-1.19-.27-1.24-1,.44-1.12,1.16-1.14c1.45,0,2.9-.05,4.36-.09.23,0,.46,0,.75-.07,0-2.35,0-4.66,0-7,0-.26-.23-.52-.36-.78a2.29,2.29,0,0,1-.08-2.44,1.61,1.61,0,0,1,2.14-.66,2.41,2.41,0,0,1,.69,2.93A3.42,3.42,0,0,0,25.79,8c0,2.07,0,4.15,0,6.22A.82.82,0,0,0,25.88,14.4Zm-.07,25.33.3.14a6.34,6.34,0,0,0,.9-2.13c.07-6.46,0-12.92,0-19.38,0-.35,0-.69,0-1.07H25.81Zm-3.1-22.46c0,.42,0,.8,0,1.17,0,6,0,12.09-.11,18.14a3.53,3.53,0,0,0,1.15,3V17.28Z" transform="translate(-1.92 -3.44)"/><path d="M38.12,37.35l-1.68-4.08-.9-2.22c-.49-1.21-.3-1.65.76-2.46,2.73-2.07,5.41-4.19,8.19-6.34a4.57,4.57,0,0,0-.51-.39l-7.9-4.41c-.21-.11-.43-.2-.64-.31a1.74,1.74,0,0,1-1.09-2.5c.59-1.92,1.17-3.84,1.81-5.92-.42,0-.73.06-1,.12-1.85.38-3.69.77-5.55,1.14-.66.13-1.32.15-1.58-.7a1,1,0,0,1,.81-1.39c2.67-.51,5.33-1,8-1.51,1.28-.23,1.81.34,1.46,1.61-.6,2.13-1.24,4.26-1.92,6.37a.94.94,0,0,0,.56,1.34c2.49,1.32,5,2.68,7.43,4l1.84,1a1.36,1.36,0,0,1,.38,2.37c-1.23,1.07-2.54,2.07-3.83,3.07-1.67,1.3-3.36,2.56-5,3.87a1,1,0,0,0-.22.89c.75,1.93,1.56,3.83,2.35,5.74a7.61,7.61,0,0,1,.46,1.25A1.29,1.29,0,0,1,39,39.55c-2.48-.11-5-.24-7.44-.38-.61,0-1-.34-1-1S30.91,37,31.65,37c1.77.08,3.53.21,5.3.32C37.27,37.37,37.6,37.35,38.12,37.35Z" transform="translate(-1.92 -3.44)"/><path d="M4.57,22.28l3.58,2.78c1.65,1.27,3.32,2.51,4.94,3.81a1.56,1.56,0,0,1,.49,2c-.85,1.91-1.62,3.87-2.42,5.81a4.68,4.68,0,0,0-.15.58c1,0,1.87,0,2.77,0,1.21-.06,2.41-.2,3.61-.26.74,0,1,.49,1.09,1.13s-.44,1-1.08,1c-2.39.13-4.78.27-7.17.37a1.32,1.32,0,0,1-1.4-2c.73-1.9,1.54-3.77,2.32-5.66.06-.14.14-.26.19-.4.48-1.18.43-1.12-.61-1.91C9,28.29,7.25,26.87,5.5,25.49c-1-.8-2.07-1.54-3-2.39a1.36,1.36,0,0,1,.39-2.37l7.51-4.05c.38-.21.73-.49,1.11-.69,1.51-.76,1.5-.75,1-2.41-.58-1.83-1.15-3.67-1.67-5.52-.39-1.38.12-1.92,1.53-1.66,2.64.48,5.28,1,7.92,1.49A1,1,0,0,1,21.07,9c-.05.56-.33,1.06-1,1S18.67,9.79,18,9.65l-5.11-1,1.45,4.85c.14.45.29.9.43,1.35a1.7,1.7,0,0,1-1,2.26c-3,1.62-6,3.26-8.95,4.9C4.73,22,4.69,22.12,4.57,22.28Z" transform="translate(-1.92 -3.44)"/></svg>