<svg id="Layer_1" data-name="Layer 1" xmlns="http://www.w3.org/2000/svg" viewBox="0 0 37.85 48.79"><title>Ranger</title><path d="M32.19,20.54l2.73-2.34c.8,1.91,1.64,3.57,2.21,5.32a20.45,20.45,0,0,1,.23,10.72c-.65,3.09-1.43,6.16-2.06,9.25a15.17,15.17,0,0,0-.24,3.36,1.33,1.33,0,0,0,2.11,1,.66.66,0,0,0,.26-.54c0-.14-.32-.21-.49-.32l-.83-.53c.32-.25.79-.77.94-.7a4.22,4.22,0,0,1,1.8,1.39c.18.33-.32,1.27-.76,1.66-1.06,1-2.28.62-3.43.06a2.25,2.25,0,0,1-1.48-2.29,32.18,32.18,0,0,1,.69-3.88c.39-1.71.94-3.39,1.28-5.11a13.26,13.26,0,0,0,.16-3.07,61.35,61.35,0,0,0-.46-7.11A15.91,15.91,0,0,0,32.43,21,4.19,4.19,0,0,1,32.19,20.54Z" transform="translate(-7.21 -0.61)"/><path d="M32.53,15.29,30,17.21c-1.13-1.93-3-2.94-4.71-4.1C21,10.16,16.35,7.82,11.06,7a9.83,9.83,0,0,1-2.61-1C6.82,5.28,6.73,2,8.6,1c.74-.39,1.55-.62,2.15,0a3.09,3.09,0,0,1,.64,1.77c0,.3-.42.71-.74,1a.8.8,0,0,1-.77-.08c-.13-.12,0-.5,0-.76s0-.49,0-.74c-.26.07-.58.06-.76.22a1.28,1.28,0,0,0,.22,2.23A17.12,17.12,0,0,0,12.76,6,68.81,68.81,0,0,1,27,10.65,16.38,16.38,0,0,1,32.53,15.29Z" transform="translate(-7.21 -0.61)"/><path d="M40.7,12.18a15.63,15.63,0,0,1-1.27,1.28q-5.23,4.08-10.48,8.12-4.75,3.67-9.5,7.33a18,18,0,0,1-2.14,1.48c-.29.16-.75,0-1.13,0,.09-.37.06-.89.29-1.09,1-.83,2.05-1.55,3.07-2.34,2.06-1.61,4.1-3.25,6.17-4.86q4.24-3.29,8.51-6.55,2.22-1.7,4.47-3.38a2.08,2.08,0,0,1,.92-.49C39.88,11.69,40.19,12,40.7,12.18Z" transform="translate(-7.21 -0.61)"/><path d="M42.95,10.06c-2.07.37-3.93.72-5.81,1a3.23,3.23,0,0,1-1.16-.3,4.94,4.94,0,0,1,.74-1.1,2.14,2.14,0,0,1,1-.29c2-.35,4-.7,6-1A1.61,1.61,0,0,1,45,8.58c.19.21,0,.85-.13,1.21-.95,1.93-2,3.83-2.94,5.74-.09.17-.19.4-.34.46a8.45,8.45,0,0,1-1.14.28c0-.35-.2-.76-.07-1,.75-1.56,1.57-3.08,2.37-4.62C42.78,10.51,42.82,10.39,42.95,10.06Z" transform="translate(-7.21 -0.61)"/><path d="M16.3,26.08c-.9,0-1.8,0-2.7,0a2.56,2.56,0,0,1-.84-.4c.28-.21.54-.55.85-.6a10.16,10.16,0,0,1,1.73,0c1.25,0,2.51,0,3.76,0,.28,0,.56.29.84.44-.28.2-.55.56-.84.58-.92.08-1.86,0-2.79,0Z" transform="translate(-7.21 -0.61)"/><path d="M19.62,30.54c-.45,1.37-.87,2.61-1.27,3.85a16.59,16.59,0,0,1-.51,1.76c-.11.24-.52.34-.79.51a2,2,0,0,1-.15-.77c.43-1.79.88-3.57,1.39-5.34.07-.25.54-.44.86-.54C19.25,30,19.47,30.37,19.62,30.54Z" transform="translate(-7.21 -0.61)"/><path d="M22.19,28.49c-.52,2-1,3.81-1.52,5.63-.07.24-.51.37-.77.55-.06-.28-.23-.59-.17-.84.42-1.75.86-3.49,1.35-5.22.08-.26.46-.44.7-.66Z" transform="translate(-7.21 -0.61)"/><path d="M22.22,32.21c.52-2,1-3.91,1.51-5.76.06-.21.46-.33.71-.48.1.24.32.51.27.71-.44,1.81-.9,3.61-1.42,5.4-.07.25-.49.4-.75.59Z" transform="translate(-7.21 -0.61)"/><path d="M13.39,28.09c-.81,0-1.62,0-2.42,0a3.56,3.56,0,0,1-1-.42c.36-.2.71-.55,1.08-.57,1.35-.07,2.71,0,4.06,0a5.92,5.92,0,0,1,1.25,0,2.6,2.6,0,0,1,.76.5c-.27.17-.54.48-.82.49-1,.06-1.93,0-2.9,0Z" transform="translate(-7.21 -0.61)"/><path d="M18.88,24c-1,0-1.94,0-2.9,0-.2,0-.4-.22-.6-.34a4.21,4.21,0,0,1,.53-.6c.11-.08.31-.06.47-.06,1.77,0,3.55,0,5.32,0,.28,0,.55.28.83.43-.28.19-.55.53-.85.56-.93.07-1.87,0-2.8,0Z" transform="translate(-7.21 -0.61)"/></svg>