<svg id="Layer_1" data-name="Layer 1" xmlns="http://www.w3.org/2000/svg" viewBox="0 0 34.47 47.23"><title>Sorcerer</title><path d="M15.71,19.44c1-1,2.11-.9,2.71.5a12.14,12.14,0,0,1,1,4.19c.14,3.64-.76,7.17-1.57,10.7a6.28,6.28,0,0,0,.25,2.58c1,4.63,4.88,7.15,9.38,7.19a21.23,21.23,0,0,0,8.69-1.3c3.28-1.4,5.71-3.68,5.93-7.49a12.42,12.42,0,0,0-1.35-7.27,67.49,67.49,0,0,0-4.43-6.09c-.65-.85-1.42-1.61-2.11-2.43-2.15-2.57-4.81-4.85-5.38-8.39a13.63,13.63,0,0,1-.14-4.32c.48-2.86,2.52-4.53,5.07-5.6.32-.13.81.14,1.21.22a3.92,3.92,0,0,1-.35,1.3c-.71,1-1.53,1.89-2.28,2.85a6.17,6.17,0,0,0-.26,5.84c1.52,2.7,4.24,4.2,6.21,6.44.7.8,1.54,1.49,2.29,2.26a27.47,27.47,0,0,1,5.55,7.31c1.79,3.81,1.52,7.57.47,11.33-.92,3.26-3.43,5.42-6.28,7.05-5.25,3-11,3-16.67,2a12.09,12.09,0,0,1-7.56-4.58c-2.83-3.54-3.82-7.39-2.61-11.67a15.82,15.82,0,0,1,2.57-4.73A7.08,7.08,0,0,0,15.71,19.44Z" transform="translate(-13.01 -1.67)"/><path d="M16.48,10.56a7.8,7.8,0,0,1,1.16-.35,7.38,7.38,0,0,1,4.39,1,11.67,11.67,0,0,1,6.91,11.67,3.38,3.38,0,0,1-.79,2c-1.3,1.33-3,.83-3.52-1s-1.09-3.46-1.53-5.22a12.11,12.11,0,0,0-4.69-6.93,9.61,9.61,0,0,0-1.94-.87Z" transform="translate(-13.01 -1.67)"/><path d="M40.76,16.17a7,7,0,0,1,4-6.23,3.06,3.06,0,0,1,1.14-.05,4.75,4.75,0,0,1,0,1.17c-.27,1-.7,2.06-.9,3.12a14,14,0,0,0-.2,3c0,1.17-.34,1.87-1.35,2.14A1.86,1.86,0,0,1,41.15,18,13.93,13.93,0,0,1,40.76,16.17Z" transform="translate(-13.01 -1.67)"/></svg>