<svg id="Layer_1" data-name="Layer 1" xmlns="http://www.w3.org/2000/svg" viewBox="0 0 39.35 44.99"><title>Warlock</title><path d="M23.93,39.5,23,39.37l-.87,2.17h1l.06.18c-.42.24-1,.38-1.21.74a3.77,3.77,0,0,0-.31,1.4c-.56,0-.56,0-.8-1-.66.93-.56,1.59.05,1.73l.16,2.21-.17.08-.56-.83c-.55.35-.72,1.32-1.71,1.12.43-.9,1.9-1.34,1.14-2.77-.42.43-.73,1.08-1.58.23,0,1,0,1.74,0,2.46a3.25,3.25,0,0,1-.35.9c-.3-.15-.68-.22-.88-.45a4.83,4.83,0,0,1-.72-4.29,14.92,14.92,0,0,1,1.07-3.35,22.09,22.09,0,0,1,5.94-7.8,50.38,50.38,0,0,1,9.61-6.25L35,24.78a21.53,21.53,0,0,0,5.31-4c2.6-2.67,3.57-7.9,1.78-11.15a9.12,9.12,0,0,0-7.21-4.83A10.31,10.31,0,0,0,28,6.36c-2.09,1.34-2.72,3.45-2.72,5.8a1.25,1.25,0,0,0,.41.86,3.29,3.29,0,0,0,.3-.72c.87-5.24,7.51-7,11.24-4.07a6.67,6.67,0,0,1,2.41,6.48,4.49,4.49,0,0,1-2.44,3.1,14.46,14.46,0,0,1-5.94,1.84,29.48,29.48,0,0,0-10.06,2.89c-5.76,3-10.35,7.35-12.66,13.68A24.69,24.69,0,0,0,6.79,44.3c0,.44.1.88.08,1.32a2.53,2.53,0,0,1-.29.74c-.26-.13-.62-.21-.76-.42a2.43,2.43,0,0,1-.31-1c-.6-3.75.33-7.25,1.72-10.68A26.46,26.46,0,0,1,14.9,24c4.54-3.87,9.81-5.5,15.57-6.18a29.8,29.8,0,0,0,5.47-1.32,2.71,2.71,0,0,0,2-2.68c-1.2-.47-1.53-1.22-1.13-2.7-.2-.08-.49-.3-.6-.23a1.24,1.24,0,0,1-1.67-.09,1.07,1.07,0,0,0-.52.4,1.72,1.72,0,0,1-2.21.91,5.67,5.67,0,0,0-1-.1c.33,1.48-.56,2.39-1.89,2.23a1.42,1.42,0,0,0-.88.15c-2.47,1.59-3.74.29-4-2.15a7,7,0,0,1,3.25-6.93c4.25-2.67,9.94-3.08,14.39,1a9,9,0,0,1,2.88,6.62c.29,8.23-2.72,14.94-9.31,20-.37.29-.76.56-1.11.88C32,35.83,29.63,37.86,27.41,40a15.64,15.64,0,0,0-3.87,6.06A5.15,5.15,0,0,1,23,47.27a7,7,0,0,1-1,1,4.48,4.48,0,0,1-.44-1.33,10,10,0,0,1,1.74-4.85,4.14,4.14,0,0,0,.22-1.1C23.67,40.48,23.8,40,23.93,39.5Zm7.93-6.44c-1.09-.05-.24-1-.78-1.61l-2.5,2.69.78.28L30.8,32.7l.33.24-.92,1.49.17.14L31.83,33l1.69-.89c-.51-.26-.83-.55-1-.48s-.44.44-.58.71A2,2,0,0,0,31.85,33.06ZM21.3,39.63,22.73,39l.62-1.57.27.08-.14,1.34c1.33,0,1.69-.44,1.74-1.8l-3,.23ZM29.2,11.72c-.56-1.11-.35-1.72.54-2.16s1.18-.35,1.54.33l3.09-1a5.5,5.5,0,0,0-6.73,2.59ZM26,32.73c.4.77.67.4,1,.09s1.14-1.11,1.49-1c1.27.43,1.81-.52,2.67-.93l-2.28-.27Zm3.66-2.59c1.52.77,1.59-1.08,2.49-1.19-.14.58-.52,1.27-.32,1.66s1,.39,1.47.55c-.16-.59-.48-1.11-.35-1.43.28-.67,0-1-.44-1.39Zm-2.35,5.31c-1,.17-1.47.84-1.61,2.29.93.39,1.44-.26,1.93-.69Zm1.57-3c-.2,0-.61-.21-.71-.1-.67.7-1.27,1.45-1.9,2.19a2.07,2.07,0,0,0,1.16.18,1,1,0,0,0,.67-.35C28.4,33.81,28.6,33.19,28.89,32.47Zm-6.75,7.59L22,39.8c-.4.28-.93.48-1.17.86a6,6,0,0,0-.48,1.62C22.21,42.37,21.54,40.76,22.14,40.06Zm4-6.38a3.61,3.61,0,0,0-1.78,2.71l1.55-1Zm8.72-3.88c1.3.71,1.52-.5,2.16-.81l-.73-1.15Zm-14,8.3L19,41.53A3.63,3.63,0,0,0,20.89,38.1Zm16.59-9.55L39.55,26C38.38,26.18,37.18,27.61,37.48,28.55ZM19.71,42.09l-.16-.21c-.25.16-.62.26-.71.48a6.31,6.31,0,0,0-.37,1.52c0,.14.15.31.23.46.13-.12.33-.21.39-.36C19.31,43.36,19.5,42.73,19.71,42.09Zm10.22-7.24c-1.9,0-2.35.37-1.8,1.56Zm6-7.6a1.84,1.84,0,0,0-2.45,1.26ZM34.85,31l.26-.23c-1.09-.37-.82-1.11-.59-1.84l-.28-.14-1,1.31ZM22.48,36.08l.32.29c1.13-.22,1.09-1.38,1.69-2l-.19-.16Zm17.92-11-1-.88-.7,1.19.1.19ZM32,11.14l.14.36a3.36,3.36,0,0,0,1-.31c.16-.11.14-.5.19-.76l-.24-.12ZM36.64,26l0,.2,1.42-.12,0-1ZM24.22,40.32l.21.16L26,38.66l-.25-.21Z" transform="translate(-5.33 -3.23)"/></svg>